<svg id="Layer_1" height="512" viewBox="0 0 128 128" width="512" xmlns="http://www.w3.org/2000/svg" xmlns:xlink="http://www.w3.org/1999/xlink" data-name="Layer 1"><linearGradient id="linear-gradient" gradientUnits="userSpaceOnUse" x1="109.234" x2="18.78" y1="109.218" y2="18.764"><stop offset="0" stop-color="#40b4f9"/><stop offset="1" stop-color="#ff8533"/></linearGradient><path d="m128 64a64.483 64.483 0 0 0 -1.283-12.81 1.75 1.75 0 1 0 -3.43.7 60.92 60.92 0 0 1 1.169 10.363h-24.981a106 106 0 0 0 -4.068-28.032 69.736 69.736 0 0 0 16.215-7.54 61.974 61.974 0 0 1 4.015 5.782 1.75 1.75 0 0 0 2.985-1.827 65.45 65.45 0 0 0 -5.048-7.126 1.376 1.376 0 0 0 -.459-.553 63.964 63.964 0 0 0 -98.218.054 1.733 1.733 0 0 0 -.33.349c-.029.042-.047.087-.072.13a64.014 64.014 0 0 0 -11.972 58.362 1.75 1.75 0 1 0 3.361-.975 60.493 60.493 0 0 1 -2.353-15.127h24.994a106 106 0 0 0 4.068 28.032 69.738 69.738 0 0 0 -16.211 7.537 60.644 60.644 0 0 1 -5.422-8.192 1.75 1.75 0 1 0 -3.066 1.688 63.964 63.964 0 0 0 105.073 10.335 1.61 1.61 0 0 0 .7-.84 63.689 63.689 0 0 0 14.333-40.31zm-65.75 60.406c-10.676-1.094-19.971-12.131-25.35-28.283a100.042 100.042 0 0 1 25.35-3.576zm3.5-31.859a100.029 100.029 0 0 1 25.35 3.576c-5.376 16.152-14.671 27.19-25.348 28.283zm0-3.5v-23.297h30.227a104.354 104.354 0 0 1 -3.837 27.037 103.508 103.508 0 0 0 -26.39-3.74zm33.725-23.3h24.98a60.17 60.17 0 0 1 -12.872 35.553 69.782 69.782 0 0 0 -16.176-7.514 106 106 0 0 0 4.068-28.036zm-3.5-3.5h-30.225v-23.3a103.508 103.508 0 0 0 26.389-3.74 104.354 104.354 0 0 1 3.838 27.043zm-79.558-35.547a69.78 69.78 0 0 0 16.176 7.514 106 106 0 0 0 -4.068 28.036h-24.981a60.17 60.17 0 0 1 12.873-35.55zm19.444 8.509a103.509 103.509 0 0 0 26.389 3.74v23.3h-30.227a104.355 104.355 0 0 1 3.838-27.037zm29.889-31.615c10.676 1.094 19.972 12.131 25.35 28.283a100.029 100.029 0 0 1 -25.35 3.576zm-3.5 31.859a100.042 100.042 0 0 1 -25.35-3.576c5.379-16.152 14.674-27.189 25.35-28.283zm47.127-11.488a66.568 66.568 0 0 1 -15.01 6.918c-3.848-11.426-9.623-20.517-16.507-25.8a59.868 59.868 0 0 1 31.517 18.882zm-59.302-18.829c-6.854 5.29-12.606 14.358-16.442 25.747a66.617 66.617 0 0 1 -14.963-6.883 60.539 60.539 0 0 1 31.405-18.864zm-18.052 60.614h30.227v23.3a103.509 103.509 0 0 0 -26.389 3.74 104.355 104.355 0 0 1 -3.838-27.04zm-13.385 38.275a66.578 66.578 0 0 1 14.994-6.908c3.839 11.4 9.6 20.47 16.457 25.759a60.579 60.579 0 0 1 -31.451-18.851zm59.287 18.839c6.854-5.29 12.606-14.358 16.442-25.747a66.624 66.624 0 0 1 14.963 6.883 60.539 60.539 0 0 1 -31.405 18.864zm42.175-81.564a1.75 1.75 0 0 1 3.243-1.314q.217.534.424 1.073a1.75 1.75 0 1 1 -3.269 1.253q-.198-.512-.398-1.012z" fill="url(#linear-gradient)"/></svg>